<svg width="14" height="14" viewBox="0 0 14 14" fill="none" xmlns="http://www.w3.org/2000/svg">
<g clip-path="url(#clip0_1222_34401)">
<path d="M7.00195 7.25C6.86388 7.25 6.75195 7.13807 6.75195 7C6.75195 6.86193 6.86388 6.75 7.00195 6.75" stroke="#0A66C2" stroke-linecap="round" stroke-linejoin="round"/>
<path d="M7.00195 7.25C7.14002 7.25 7.25195 7.13807 7.25195 7C7.25195 6.86193 7.14002 6.75 7.00195 6.75" stroke="#0A66C2" stroke-linecap="round" stroke-linejoin="round"/>
<path d="M4.25195 7.25C4.11388 7.25 4.00195 7.13807 4.00195 7C4.00195 6.86193 4.11388 6.75 4.25195 6.75" stroke="#0A66C2" stroke-linecap="round" stroke-linejoin="round"/>
<path d="M4.25195 7.25C4.39002 7.25 4.50195 7.13807 4.50195 7C4.50195 6.86193 4.39002 6.75 4.25195 6.75" stroke="#0A66C2" stroke-linecap="round" stroke-linejoin="round"/>
<path d="M9.75195 7.25C9.61388 7.25 9.50195 7.13807 9.50195 7C9.50195 6.86193 9.61388 6.75 9.75195 6.75" stroke="#0A66C2" stroke-linecap="round" stroke-linejoin="round"/>
<path d="M9.75195 7.25C9.89002 7.25 10.002 7.13807 10.002 7C10.002 6.86193 9.89002 6.75 9.75195 6.75" stroke="#0A66C2" stroke-linecap="round" stroke-linejoin="round"/>
<path d="M6.99815 0.560548C5.83333 0.560911 4.69041 0.877215 3.69113 1.47577C2.69186 2.07433 1.87365 2.93272 1.32365 3.95952C0.773648 4.98632 0.512458 6.14308 0.567896 7.30658C0.623333 8.47009 0.993323 9.59677 1.63846 10.5666L0.558594 13.4397L4.17465 12.7858C5.04539 13.2113 6.00093 13.4348 6.97006 13.4396C7.93919 13.4444 8.8969 13.2304 9.77181 12.8135C10.6467 12.3967 11.4163 11.7877 12.023 11.032C12.6298 10.2764 13.0583 9.3935 13.2763 8.44921C13.4944 7.50493 13.4966 6.5236 13.2826 5.57838C13.0686 4.63315 12.6441 3.74841 12.0406 2.99011C11.4371 2.2318 10.6702 1.6195 9.79714 1.19883C8.92406 0.778157 7.96729 0.559976 6.99815 0.560548Z" stroke="#0A66C2" stroke-linecap="round" stroke-linejoin="round"/>
</g>
<defs>
<clipPath id="clip0_1222_34401">
<rect width="14" height="14" fill="white"/>
</clipPath>
</defs>
</svg>
