<svg width="14" height="14" viewBox="0 0 14 14" fill="none" xmlns="http://www.w3.org/2000/svg">
<path d="M8.95559 13.309C9.4202 13.1695 9.86574 12.9384 10.2652 12.6129C10.8044 12.1737 11.1942 11.6143 11.4241 11.004C11.6715 10.3473 11.3397 9.61451 10.6831 9.36716C10.4954 9.29646 10.3015 9.27307 10.1145 9.29106C10.2978 9.24874 10.4746 9.16489 10.6303 9.03804C11.1743 8.59486 11.2158 7.58593 10.7726 7.04193C9.97119 6.05815 8.78045 5.57832 7.60351 5.64359L8.92359 2.61699C9.23961 1.89244 8.90062 1.04951 8.17096 0.745482C7.57253 0.496136 6.88314 0.685066 6.52278 1.22399C5.5317 2.70613 3.70925 5.71176 3.59575 7.92468C3.43935 10.9739 3.59578 13.309 3.59578 13.309" stroke="#3ABF58" stroke-linecap="round" stroke-linejoin="round"/>
<path fill-rule="evenodd" clip-rule="evenodd" d="M7.16069 8.64002C6.6167 9.0832 6.53498 9.88347 6.97816 10.4275C7.42134 10.9715 8.2216 11.0532 8.76559 10.61C8.94749 10.4618 9.07567 10.2769 9.15161 10.0753C9.30736 9.66182 9.65558 9.37716 10.0561 9.28478C9.64724 9.32414 9.22699 9.16486 8.94813 8.82256C8.50495 8.27857 7.70469 8.19684 7.16069 8.64002Z" stroke="#3ABF58" stroke-linecap="round" stroke-linejoin="round"/>
<path d="M7.61171 5.646C7.35623 5.67626 6.74848 5.78921 6.36133 5.99891" stroke="#3ABF58" stroke-linecap="round" stroke-linejoin="round"/>
<path d="M3.54033 8.99888C2.6454 6.99797 2.68546 3.71134 2.77999 2.00962C2.81595 1.36232 3.31326 0.848859 3.95529 0.758967C4.73812 0.649363 5.45889 1.20247 5.55557 1.987V2.78554" stroke="#3ABF58" stroke-linecap="round" stroke-linejoin="round"/>
</svg>
