<svg width="14" height="14" viewBox="0 0 14 14" fill="none" xmlns="http://www.w3.org/2000/svg">
<g clip-path="url(#clip0_1222_37425)">
<path d="M1.0461 5.81396H3.39738V12.0741H1.0461C0.914538 12.0741 0.788366 12.0219 0.695339 11.9288C0.602311 11.8358 0.550049 11.7096 0.550049 11.5781V6.31001C0.550049 6.17845 0.602311 6.05228 0.695339 5.95925C0.788366 5.86623 0.914538 5.81396 1.0461 5.81396Z" stroke="#0A66C2" stroke-linecap="round" stroke-linejoin="round"/>
<path d="M3.39734 5.81358L5.91727 1.78565C6.01493 1.62645 6.15216 1.49525 6.31559 1.40484C6.47902 1.31443 6.66309 1.2679 6.84985 1.26976C6.99694 1.26445 7.1436 1.28868 7.28116 1.34102C7.41873 1.39336 7.5444 1.47274 7.65077 1.57448C7.75713 1.67622 7.84202 1.79824 7.90041 1.93335C7.95881 2.06845 7.98953 2.21389 7.99076 2.36107V5.24808H12.3461C12.507 5.2533 12.665 5.29252 12.8097 5.36318C12.9544 5.43383 13.0825 5.5343 13.1856 5.658C13.2887 5.7817 13.3644 5.92581 13.4078 6.08087C13.4512 6.23593 13.4613 6.39842 13.4374 6.55765L12.6437 11.6769C12.6099 11.9505 12.4772 12.2023 12.2708 12.385C12.0644 12.5677 11.7983 12.6687 11.5226 12.669H5.01446C4.70465 12.6702 4.39886 12.5989 4.12157 12.4606L3.40726 12.1035" stroke="#0A66C2" stroke-linecap="round" stroke-linejoin="round"/>
<path d="M3.39734 5.81372V12.0739" stroke="#0A66C2" stroke-linecap="round" stroke-linejoin="round"/>
</g>
<defs>
<clipPath id="clip0_1222_37425">
<rect width="14" height="14" fill="white"/>
</clipPath>
</defs>
</svg>
